#!OML:ASF I:\salsa\salsa 7_09\Patient 1\Session 1\dancermale.ASF
:FULLY-SPECIFIED
:DEGREES
2246
root 1.49005 17.0094 -2.04885 -2511.48 61.6803 1079.09
lowerback 173.229 -178.734 -177.141
upperback -2.97685 -1.8109 -0.459848
thorax 0.618405 -0.912505 -2.20516
lowerneck -5.34496 4.54678 3.92336
upperneck 12.2584 6.39328 -4.39988
head 4.82071 3.09476 -1.61793
rclavicle -3.77501e-014 1.20265e-014
rhumerus -218.86 166.713 -275.908
rradius 87.0799
rwrist -2.64477
rhand -28.6386 0.217173
rfingers 7.12502
rthumb -2.00264 -29.7532
lclavicle -3.77501e-014 1.20265e-014
lhumerus -13.307 -17.6633 99.3097
lradius 88.4794
lwrist 52.2283
lhand -30.5665 57.2034
lfingers 7.12502
lthumb -3.86456 -1712.85
rfemur -10.3987 1.29014 17.7178
rtibia 42.2434
rfoot -14.8079 -11.6461
rtoes -13.1545
lfemur -29.3467 2.59716 -9.73215
ltibia 35.4841
lfoot -13.0571 14.2991
ltoes -8.90306
2247
root 1.69789 17.028 -2.12254 -2510.04 63.035 1081.56
lowerback 173.359 -178.349 -177.972
upperback -2.63227 -2.27646 -0.582341
thorax 0.903682 -1.13522 -1.90003
lowerneck -5.5424 4.31876 3.61878
upperneck 12.2037 6.12056 -4.5146
head 4.8194 2.93806 -1.6177
rclavicle -2.91932e-014 6.96989e-015
rhumerus -218.503 167.225 -275.658
rradius 86.9682
rwrist -2.61457
rhand -28.8781 0.169364
rfingers 7.12502
rthumb -2.23398 -29.7987
lclavicle -2.91932e-014 6.96989e-015
lhumerus -13.8714 -18.4519 99.6488
lradius 89.2256
lwrist 51.8046
lhand -30.6895 57.6431
lfingers 7.12502
lthumb -3.98335 -1712.41
rfemur -10.3467 0.447054 16.1551
rtibia 44.7623
rfoot -12.5953 -12.0426
rtoes -11.2231
lfemur -27.3777 2.52974 -11.8208
ltibia 33.784
lfoot -14.0425 13.0592
ltoes -9.21305
2248
root 1.89659 17.0435 -2.20458 -2508.52 63.8315 1083.64
lowerback 173.464 -178.216 -178.529
upperback -2.50576 -2.41926 -0.648156
thorax 0.989766 -1.20292 -1.66454
lowerneck -5.75729 3.96208 3.26777
upperneck 12.2175 5.69806 -4.73612
head 4.83815 2.69949 -1.65177
rclavicle 1.85285e-014 -8.44835e-015
rhumerus -218.01 167.867 -275.387
rradius 86.5484
rwrist -2.41693
rhand -28.9377 -0.00477082
rfingers 7.12502
rthumb -2.2915 -29.9722
lclavicle 1.85285e-014 -8.44835e-015
lhumerus -14.8122 -19.1626 100.037
lradius 90.4138
lwrist 51.315
lhand -30.4185 57.3578
lfingers 7.12502
lthumb -3.72158 -1712.69
rfemur -11.7337 -0.117082 14.834
rtibia 48.6462
rfoot -9.60058 -12.3393
rtoes -6.86276
lfemur -25.6613 2.81004 -13.4666
ltibia 32.0606
lfoot -14.4408 11.5468
ltoes -11.2171
2249
root 2.07981 17.0409 -2.29318 -2506.55 63.9455 1085.25
lowerback 173.137 -178.36 -178.874
upperback -2.73172 -2.20191 -0.668338
thorax 0.959908 -1.09186 -1.48306
lowerneck -6.00405 3.62524 2.9609
upperneck 12.4038 5.31696 -5.00785
head 4.92024 2.47861 -1.7046
rclavicle -3.87009e-015 -7.35503e-015
rhumerus -217.452 168.617 -275.089
rradius 85.9879
rwrist -2.32952
rhand -28.8187 -0.436943
rfingers 7.12502
rthumb -2.17664 -30.4056
lclavicle -3.87009e-015 -7.35503e-015
lhumerus -15.9689 -19.9706 100.257
lradius 91.8323
lwrist 50.8823
lhand -30.632 56.2641
lfingers 7.12502
lthumb -3.92775 -1713.79
rfemur -15.2736 -0.153643 13.7425
rtibia 53.958
rfoot -6.27372 -12.7141
rtoes 1.50218
lfemur -25.3554 3.60312 -14.922
ltibia 31.1888
lfoot -14.7232 10.3177
ltoes -11.9453
2250
root 2.26246 17.0614 -2.35099 -2505.13 64.3503 1087.08
lowerback 173.551 -178.333 -179.559
upperback -2.73413 -2.1961 -0.633232
thorax 0.755651 -1.08654 -1.0498
lowerneck -6.18909 3.28243 2.41261
upperneck 12.4849 4.92509 -5.07739
head 4.94885 2.25471 -1.65868
rclavicle 2.17032e-014 6.55989e-015
rhumerus -216.883 169.191 -274.911
rradius 85.422
rwrist -2.77176
rhand -29.1346 -0.958998
rfingers 7.12502
rthumb -2.48168 -30.9243
lclavicle 2.17032e-014 6.55989e-015
lhumerus -17.0807 -20.6488 100.153
lradius 93.4725
lwrist 50.2136
lhand -30.6285 55.87
lfingers 7.12502
lthumb -3.92436 -1714.19
rfemur -17.9737 -0.229788 12.9396
rtibia 59.1159
rfoot -3.16708 -13.7209
rtoes 8.77884
lfemur -24.6566 4.14124 -16.3586
ltibia 31.0318
lfoot -15.2195 9.41458
ltoes -13.1599
2251
root 2.44392 17.0849 -2.40187 -2503.82 64.5213 1088.76
lowerback 174.042 -178.438 -180.076
upperback -2.78526 -2.02872 -0.681455
thorax 0.450714 -1.00068 -0.782521
lowerneck -6.13711 2.92569 2.01582
upperneck 12.4472 4.5113 -5.25711
head 4.90768 2.02602 -1.67714
rclavicle -1.78797e-014 3.57812e-015
rhumerus -216.523 169.937 -274.909
rradius 85.0056
rwrist -3.64193
rhand -29.9141 -1.07776
rfingers 7.12502
rthumb -3.2345 -31.033
lclavicle -1.78797e-014 3.57812e-015
lhumerus -18.3566 -21.56 99.7932
lradius 95.5489
lwrist 49.9761
lhand -30.8685 56.551
lfingers 7.12502
lthumb -4.15614 -1713.51
rfemur -20.8164 -0.344434 12.3256
rtibia 64.0445
rfoot -1.00989 -14.6864
rtoes 8.21553
lfemur -24.172 4.54126 -17.721
ltibia 31.2245
lfoot -15.755 9.11764
ltoes -15.5165
2252
root 2.62615 17.1128 -2.43958 -2503.15 64.3637 1089.77
lowerback 174.592 -178.833 -180.263
upperback -2.85708 -1.49685 -0.837545
thorax 0.0789947 -0.734598 -0.791337
lowerneck -6.23496 2.4072 1.67638
upperneck 12.7277 3.85431 -5.18278
head 4.97781 1.68941 -1.63858
rclavicle 4.60682e-014 9.54166e-015
rhumerus -216.383 171.323 -274.973
rradius 84.8027
rwrist -4.13304
rhand -30.4299 -1.29026
rfingers 7.12502
rthumb -3.7326 -31.2373
lclavicle 4.60682e-014 9.54166e-015
lhumerus -19.6849 -22.9619 99.1182
lradius 97.7113
lwrist 49.7063
lhand -30.5766 56.9484
lfingers 7.12502
lthumb -3.87426 -1713.11
rfemur -23.4155 -0.245915 12.1036
rtibia 68.0003
rfoot -0.203375 -14.8248
rtoes 13.2663
lfemur -23.3566 5.09318 -18.7221
ltibia 31.0075
lfoot -16.1942 8.98743
ltoes -17.6205
2253
root 2.81009 17.1411 -2.46522 -2502.94 64.0071 1090.16
lowerback 175.016 -179.362 -180.127
upperback -2.97511 -0.799512 -1.04512
thorax -0.275279 -0.388844 -1.03739
lowerneck -6.07741 1.90557 1.38254
upperneck 12.8922 3.19255 -4.98198
head 4.97008 1.36589 -1.57142
rclavicle -3.29159e-014 5.96354e-015
rhumerus -216.297 172.961 -275.073
rradius 84.6763
rwrist -4.41696
rhand -30.3299 -1.80726
rfingers 7.12502
rthumb -3.63609 -31.756
lclavicle -3.29159e-014 5.96354e-015
lhumerus -20.965 -24.4533 98.1167
lradius 99.9161
lwrist 49.5152
lhand -29.9986 56.8125
lfingers 7.12502
lthumb -3.31607 -1713.23
rfemur -25.7426 0.124477 12.1868
rtibia 70.6096
rfoot -0.444255 -13.6007
rtoes 14.2021
lfemur -22.1861 5.76398 -19.4148
ltibia 30.2733
lfoot -16.5728 8.82941
ltoes -17.6596
2254
root 2.99705 17.1634 -2.48686 -2502.74 63.7425 1090.12
lowerback 174.943 -179.875 -179.619
upperback -3.1494 -0.133227 -1.25272
thorax -0.404461 -0.0627981 -1.50536
lowerneck -5.78427 1.32833 1.06155
upperneck 12.9281 2.42727 -4.81074
head 4.89998 0.991823 -1.5148
rclavicle -1.90088e-014 1.94809e-014
rhumerus -215.8 174.223 -275.031
rradius 84.0906
rwrist -5.36152
rhand -30.0545 -1.88607
rfingers 7.12502
rthumb -3.37007 -31.8392
lclavicle -1.90088e-014 1.94809e-014
lhumerus -22.1247 -25.8618 96.8375
lradius 102.39
lwrist 49.6854
lhand -29.6839 57.2426
lfingers 7.12502
lthumb -3.01222 -1712.8
rfemur -28.2099 0.324839 12.5344
rtibia 72.0885
rfoot -1.43623 -11.0616
rtoes 11.1532
lfemur -21.2109 5.99192 -19.8896
ltibia 29.2486
lfoot -16.7586 9.00008
ltoes -17.23
2255
root 3.18261 17.204 -2.48951 -2503.43 63.3562 1089.49
lowerback 175.112 -180.403 -179.121
upperback -3.12592 0.548897 -1.30992
thorax -0.450453 0.270677 -1.81335
lowerneck -5.46233 0.810075 1.1985
upperneck 12.8017 1.76999 -5.28045
head 4.79038 0.656376 -1.72303
rclavicle 7.58488e-015 -1.23246e-014
rhumerus -214.986 175.257 -274.867
rradius 83.2007
rwrist -6.16137
rhand -30.3769 -1.74296
rfingers 7.12502
rthumb -3.68143 -31.6909
lclavicle 7.58488e-015 -1.23246e-014
lhumerus -23.0894 -27.0048 95.3953
lradius 105.109
lwrist 50.2095
lhand -29.918 57.9797
lfingers 7.12502
lthumb -3.23825 -1712.07
rfemur -29.9701 0.641747 13.2719
rtibia 72.475
rfoot -3.75405 -9.5189
rtoes 7.14379
lfemur -19.5843 5.71322 -19.9334
ltibia 27.9192
lfoot -16.8961 9.58568
ltoes -15.867
2256
root 3.3632 17.251 -2.47757 -2504.07 62.9955 1088.81
lowerback 175.113 -180.811 -178.892
upperback -3.03544 1.08122 -1.21781
thorax -0.335489 0.535377 -1.82211
lowerneck -5.50918 0.367984 1.20652
upperneck 12.967 1.21753 -5.55103
head 4.83132 0.368432 -1.84094
rclavicle -4.72114e-015 3.57812e-015
rhumerus -214.308 176.564 -274.716
rradius 82.746
rwrist -6.24677
rhand -30.808 -1.84099
rfingers 7.12502
rthumb -4.09769 -31.7813
lclavicle -4.72114e-015 3.57812e-015
lhumerus -23.7794 -27.6114 93.8001
lradius 107.854
lwrist 50.5615
lhand -30.1405 58.1077
lfingers 7.12502
lthumb -3.45313 -1711.94
rfemur -31.6004 0.596126 14.2475
rtibia 71.6163
rfoot -5.95919 -9.88691
rtoes 9.95964
lfemur -18.0968 4.87821 -19.8797
ltibia 26.6998
lfoot -17.0655 10.5105
ltoes -13.1438
2257
root 3.54362 17.2931 -2.45963 -2504.14 63.0977 1088.45
lowerback 174.641 -180.983 -178.784
upperback -2.91014 1.30194 -1.06063
thorax 0.0634223 0.649361 -1.70106
lowerneck -5.65034 -0.00708219 1.01942
upperneck 13.0653 0.741447 -5.59967
head 4.8684 0.120076 -1.85348
rclavicle -4.14652e-016 -1.98785e-015
rhumerus -213.576 177.586 -274.442
rradius 82.4241
rwrist -6.41461
rhand -31.0375 -2.29013
rfingers 7.12502
rthumb -4.31934 -32.2261
lclavicle -4.14652e-016 -1.98785e-015
lhumerus -23.9766 -27.6309 91.9385
lradius 110.39
lwrist 50.4338
lhand -29.3286 58.2739
lfingers 7.12502
lthumb -2.66905 -1711.76
rfemur -33.1402 -0.153916 15.1981
rtibia 69.9061
rfoot -7.99623 -11.237
rtoes 10.3038
lfemur -17.1128 3.65733 -19.9429
ltibia 25.5824
lfoot -17.003 11.4928
ltoes -11.7311
